<svg xmlns="http://www.w3.org/2000/svg" viewBox="31.5 0 34 33.5"><defs><style>.cls-1{fill:#fff;}.cls-1,.cls-2{fill-rule:evenodd;}.cls-2{fill:#f96712;}</style></defs><title>logo-green</title><g id="Layer_2" data-name="Layer 2"><g id="Layer_1-2" data-name="Layer 1"><path class="cls-1" d="M60.94,23.69,54.35,8.8a4,4,0,0,0,0-4.58,3.75,3.75,0,0,0-1.54,4.52c-3.65,4-7.6,7.61-13.34,8.79-.94-1.4-2.53-1.78-4.64-1.36a3.75,3.75,0,0,0,4,2.57l2.42,10.45a14.38,14.38,0,1,1,19.7-5.5M48.37,0a16.7,16.7,0,1,1-16.7,16.7A16.7,16.7,0,0,1,48.37,0Z"/><path class="cls-2" d="M53.43,10l6.7,15a14.39,14.39,0,0,1-17.51,4.9L40.08,18.67C45,17.47,49.42,14.36,53.43,10"/></g></g></svg>