<svg width="55" height="60" viewBox="0 0 55 60" xmlns="http://www.w3.org/2000/svg"><g fill="none" fill-rule="evenodd"><path d="M27.055.218c-7.617 0-13.792 6.307-13.792 14.086 0 7.21 5.304 13.15 12.142 13.985-.12-.074-.235-.16-.35-.247-1.902-1.077-3.242-2.89-3.242-5.887 0-3.97 2.348-5.966 5.244-5.966 2.895 0 5.242 1.996 5.242 5.966 0 3-1.344 4.814-3.248 5.89-.114.085-.227.172-.347.243 6.84-.835 12.144-6.775 12.144-13.986 0-7.78-6.177-14.086-13.795-14.086" class="shape" fill="#009D75"/><path d="M0 53.473C0 57.32 2.135 60 6.188 60c3.998 0 6.187-2.733 6.187-6.527 0-3.793-2.226-6.454-6.188-6.454C2.171 47.02 0 49.626 0 53.472m2.642 0c0-2.21 1.03-4.475 3.546-4.475 2.514 0 3.546 2.264 3.546 4.475 0 2.266-.96 4.55-3.546 4.55-2.587 0-3.546-2.284-3.546-4.55M14.474 59.784h2.533V54.57h.814c1.07 0 1.393.36 1.756 1.295l1.52 3.92h2.82l-2.025-4.91c-.252-.556-.65-1.24-1.338-1.293v-.037c1.61-.214 2.606-1.437 2.606-2.91 0-3.49-3.24-3.4-5.953-3.4h-2.73v12.55zm2.533-10.57h.832c1.265 0 2.677.124 2.677 1.636 0 1.563-1.43 1.742-2.678 1.742h-.833v-3.38zM25.745 47.235h7.02v1.978h-4.487v3.092h4.27v1.978h-4.27v5.5h-2.533V47.236zM34.79 47.235h7.02v1.978h-4.486v3.092h4.27v1.978h-4.27v5.5H34.79V47.236zM41.978 59.784h2.624l1.103-2.877h5.12l1.085 2.877h2.805l-4.957-12.55h-2.86l-4.92 12.55zm8.142-4.854h-3.69l1.826-5.178h.037l1.827 5.178z" class="text" fill="#004489"/><path d="M30.715 42.206c1.517-5.847 8.152-9.348 11.185-14.465 1.973-3.328 3.46-6.876 2.25-11.72-.81-3.24-.634-.664-.6.17.01.262.152 1.424-.17 3.015-.412 2.043-2.297 5.526-7.925 10.56-7.068 6.322-5.783 13.602-5.783 13.602h25.074v-1.16h-24.03zM23.398 42.206c-1.517-5.848-8.152-9.347-11.186-14.465-1.973-3.328-3.46-6.876-2.248-11.72.81-3.24.632-.663.598.17-.01.26-.15 1.424.17 3.015.412 2.043 2.297 5.527 7.926 10.56 7.07 6.323 5.783 13.602 5.783 13.602H0v-1.16h23.398z" class="shape" fill="#009D75"/></g></svg>
