<svg xmlns="http://www.w3.org/2000/svg" xmlns:xlink="http://www.w3.org/1999/xlink" viewBox="0 0 32.58 32.58"><defs><style>.cls-1{fill:none;clip-rule:evenodd;}.cls-2{fill:#009746;}.cls-2,.cls-4{fill-rule:evenodd;}.cls-3{clip-path:url(#clip-path);}.cls-4{fill:#fff;}</style><clipPath id="clip-path"><path class="cls-1" d="M5.62,0H27a5.63,5.63,0,0,1,5.62,5.62V27A5.63,5.63,0,0,1,27,32.58H5.62A5.63,5.63,0,0,1,0,27V5.62A5.63,5.63,0,0,1,5.62,0"/></clipPath></defs><title>cell</title><g id="Layer_2" data-name="Layer 2"><g id="Layer_1-2" data-name="Layer 1"><path class="cls-2" d="M5.62,0H27a5.63,5.63,0,0,1,5.62,5.62V27A5.63,5.63,0,0,1,27,32.58H5.62A5.63,5.63,0,0,1,0,27V5.62A5.63,5.63,0,0,1,5.62,0"/><g class="cls-3"><path class="cls-4" d="M3.25,9.15v1.18c0,.09.14,1.12.18,1.35a11.35,11.35,0,0,0,.29,1.2,15.33,15.33,0,0,0,.88,2.16A22.51,22.51,0,0,0,7,18.72c.5.58.91,1.1,1.39,1.65.11.12.27.26.39.41L9.9,21.93c.26.27.49.51.77.77l1.6,1.45a22.06,22.06,0,0,0,8.85,4.8c3.59.8,5.21.24,7.71-2.29a2.1,2.1,0,0,0,.2-2.44c-.17-.27-1.33-1.4-1.65-1.72-.76-.78-1.43-1.41-2.27-2.27S23.17,18.8,22,19.69c-.48.36-2,2.07-2.29,2.21l-1.45-.83a18,18,0,0,1-5.86-5.39,23.28,23.28,0,0,1-1.68-2.83c.2-.16.38-.37.59-.57.41-.4,1.41-1.38,1.66-1.71a2.16,2.16,0,0,0,.33-1.82,2.83,2.83,0,0,0-.94-1.3c-1.07-1-2.25-2.27-3.37-3.37a2.15,2.15,0,0,0-1.42-.79c-1.83-.1-3.37,2.2-3.9,3.76a14.79,14.79,0,0,0-.39,2.09"/></g></g></g></svg>