<svg xmlns="http://www.w3.org/2000/svg" viewBox="0 0 181.94 90.57"><defs><style>.cls-1{fill:#fff;}.cls-1,.cls-3,.cls-4{fill-rule:evenodd;}.cls-2{fill:none;stroke:#f96712;stroke-miterlimit:22.93;stroke-width:1px;}.cls-3,.cls-5{fill:#365c24;}.cls-4{fill:#f96712;}</style></defs><title>gmap-logo</title><g id="Layer_2" data-name="Layer 2"><g id="Layer_1-2" data-name="Layer 1"><path class="cls-1" d="M30.28.5H172.78a8.68,8.68,0,0,1,8.66,8.66V52.44a8.68,8.68,0,0,1-8.66,8.66H83.56L3.06,89,41.71,61.1H30.28a8.68,8.68,0,0,1-8.66-8.66V9.16A8.68,8.68,0,0,1,30.28.5Z"/><path class="cls-2" d="M30.28.5H172.78a8.68,8.68,0,0,1,8.66,8.66V52.44a8.68,8.68,0,0,1-8.66,8.66H83.56L3.06,89,41.71,61.1H30.28a8.68,8.68,0,0,1-8.66-8.66V9.16A8.68,8.68,0,0,1,30.28.5Z"/><path class="cls-3" d="M98.9,30.79,92.3,15.9a4,4,0,0,0,0-4.58,3.75,3.75,0,0,0-1.54,4.52c-3.65,4-7.6,7.61-13.34,8.79-.94-1.4-2.53-1.78-4.64-1.36a3.75,3.75,0,0,0,4,2.57L79.2,36.29a14.38,14.38,0,1,1,19.7-5.5M86.33,7.1a16.7,16.7,0,1,1-16.7,16.7A16.7,16.7,0,0,1,86.33,7.1Z"/><path class="cls-4" d="M91.38,17.08l6.7,15A14.39,14.39,0,0,1,80.57,37L78,25.77c4.95-1.2,9.33-4.31,13.35-8.69"/><path class="cls-1" d="M95.66,53.24h4.2V38.45H96.3v-.91l3.66-.43-.11-.67a11.63,11.63,0,0,0-3.06-6.56,8.65,8.65,0,0,0-6.31-2.37,8.85,8.85,0,0,0-7.84,4,16.69,16.69,0,0,0-2.56,9.42,14.73,14.73,0,0,0,2.67,9.2,8.51,8.51,0,0,0,7,3.5,7.06,7.06,0,0,0,5.18-2l.24-.24.1.32c.1.34.2.69.28,1Z"/><path class="cls-5" d="M99.22,39.1v13.5h-3a16.18,16.18,0,0,0-.82-2.53A6.27,6.27,0,0,1,89.74,53a7.85,7.85,0,0,1-6.47-3.25q-2.54-3.25-2.54-8.8a16,16,0,0,1,2.45-9.06,8.21,8.21,0,0,1,7.3-3.67,8,8,0,0,1,5.86,2.18,10.91,10.91,0,0,1,2.88,6.21l-6,.7q-.45-3.75-2.8-3.75-3.09,0-3.09,6.91,0,4.18,1,5.51a2.92,2.92,0,0,0,2.39,1.33,2.62,2.62,0,0,0,1.94-.81,3.07,3.07,0,0,0,.81-2.22H90V39.1Zm-19.45.64V52H76V39.74ZM67.18,49.18h1a1.9,1.9,0,0,0,1.59-.91,4.19,4.19,0,0,0,.65-2.47,4.48,4.48,0,0,0-.57-2.32,1.83,1.83,0,0,0-1.66-1h-1ZM63.38,52V39.74h4.78a5.76,5.76,0,0,1,4.66,1.83,6.37,6.37,0,0,1,1.55,4.24,6.16,6.16,0,0,1-1.66,4.47A5.73,5.73,0,0,1,68.4,52Zm-8.79-2.81h1a1.9,1.9,0,0,0,1.59-.91,4.19,4.19,0,0,0,.65-2.47,4.48,4.48,0,0,0-.57-2.32,1.83,1.83,0,0,0-1.66-1h-1ZM50.8,52V39.74h4.78a5.76,5.76,0,0,1,4.66,1.83,6.37,6.37,0,0,1,1.55,4.24,6.16,6.16,0,0,1-1.66,4.47A5.73,5.73,0,0,1,55.81,52ZM42.45,46.9h2l-1-3.55ZM45.81,52l-.68-2.41H41.76L41,52H38l3.82-12.25h4L49.68,52Zm96.89-3.56,3.49-.63a2.07,2.07,0,0,0,2.26,1.49q1.41,0,1.41-.75a.69.69,0,0,0-.33-.61,3.41,3.41,0,0,0-1.17-.39q-3.22-.62-4.13-1.61a3.35,3.35,0,0,1-.91-2.34,3.67,3.67,0,0,1,1.31-2.88,5.57,5.57,0,0,1,3.78-1.15q3.74,0,4.94,3l-3.1.94a1.91,1.91,0,0,0-2-1.23q-1.23,0-1.23.76a.6.6,0,0,0,.28.53,3.38,3.38,0,0,0,1.07.36,22.53,22.53,0,0,1,3.12.81A3.29,3.29,0,0,1,153.07,46a3.45,3.45,0,0,1,.62,2,3.63,3.63,0,0,1-1.51,3,6.32,6.32,0,0,1-4,1.16Q143.75,52.18,142.7,48.43ZM141.83,52h-3.07l-3.37-5.4A18,18,0,0,1,134.11,44a8.45,8.45,0,0,1,.3,2V52h-3V39.74h3.55l2.86,4.49a16.85,16.85,0,0,1,1.29,2.35,17.72,17.72,0,0,1-.29-3.22V39.74h3.07Zm-12.6-12.25V52h-3.77V39.74Zm-12,7.17h2l-1-3.55ZM120.52,52l-.68-2.41h-3.33L115.79,52h-3.05l3.79-12.25h4L124.36,52ZM104.84,44.7h1.61a2,2,0,0,0,1.14-.3,1,1,0,0,0,.43-.88q0-1.18-1.45-1.18h-1.73ZM112,52H107.8L106,47.31h-1.16V52h-3.77V39.74h6.4a4.94,4.94,0,0,1,3.29,1,3.26,3.26,0,0,1,1.17,2.62,3.94,3.94,0,0,1-.43,1.87,3.63,3.63,0,0,1-1.75,1.43Zm59.32-.23V50.58h1.16v1.19Zm-2.89-2.46L167.55,47l-.82,2.29Zm2.25,2.46h-1.33l-.53-1.41h-2.44l-.51,1.41h-1.3l2.36-6.2h1.3Zm-7.86,0V50.58H164v1.19Zm-2.23-2.29,1.19.37a2.76,2.76,0,0,1-.91,1.52,2.55,2.55,0,0,1-1.62.5,2.6,2.6,0,0,1-2-.84,3.27,3.27,0,0,1-.78-2.31,3.43,3.43,0,0,1,.78-2.4,2.67,2.67,0,0,1,2.06-.86,2.5,2.5,0,0,1,1.81.67,2.46,2.46,0,0,1,.62,1.14l-1.22.29a1.32,1.32,0,0,0-.45-.76,1.28,1.28,0,0,0-.83-.28,1.37,1.37,0,0,0-1.1.49,2.45,2.45,0,0,0-.42,1.6,2.63,2.63,0,0,0,.42,1.67,1.34,1.34,0,0,0,1.08.5,1.22,1.22,0,0,0,.84-.32A1.85,1.85,0,0,0,160.56,49.48Zm-6.3,1.1h1.16v.85a3,3,0,0,1-.09.81,1.22,1.22,0,0,1-.33.54,1.69,1.69,0,0,1-.61.37l-.23-.49a1,1,0,0,0,.5-.33,1,1,0,0,0,.16-.57h-.56Z"/></g></g></svg>