<svg xmlns="http://www.w3.org/2000/svg" viewBox="0 0 1001.1 813.22"><defs><style>.cls-1{fill:#67625f;}</style></defs><title>Banersy Twitter Black</title><g id="Capa_2" data-name="Capa 2"><g id="Capa_1-2" data-name="Capa 1"><path class="cls-1" d="M1001.1,96.19a409.62,409.62,0,0,1-117.91,32.44A207.12,207.12,0,0,0,973.63,14.91,409.52,409.52,0,0,1,842.86,64.72,205,205,0,0,0,693.17,0C579.83,0,487.83,91.93,487.83,205.27a212.74,212.74,0,0,0,5.3,46.78c-170.83-8.63-322-90.19-423.42-214.52a205.31,205.31,0,0,0,63.49,274c-33.63-.83-65.08-10.33-92.82-25.66v2.54C40.39,388,111.23,471.05,205,490a209.63,209.63,0,0,1-54,7,207.39,207.39,0,0,1-38.79-3.64A206,206,0,0,0,304,636,412.71,412.71,0,0,1,48.9,723.71,433.79,433.79,0,0,1,0,721a581.27,581.27,0,0,0,315,92.27c377.62,0,584.13-312.81,584.13-584.11l-.62-26.57A413.67,413.67,0,0,0,1001.1,96.19Zm0,0"/></g></g></svg>