<svg xmlns="http://www.w3.org/2000/svg" viewBox="0 0 522.75 522.75"><defs><style>.cls-1{fill:#67625f;}</style></defs><title>Recurso 1IconoIG</title><g id="Capa_2" data-name="Capa 2"><g id="Capa_1-2" data-name="Capa 1"><path class="cls-1" d="M378.49,0H144.26C64.71,0,0,64.71,0,144.26V378.49C0,458,64.71,522.75,144.26,522.75H378.49c79.55,0,144.26-64.72,144.26-144.26V144.26C522.75,64.71,458,0,378.49,0Zm97.88,378.49a98,98,0,0,1-97.88,97.88H144.26a98,98,0,0,1-97.88-97.88V144.26a98,98,0,0,1,97.88-97.88H378.49a98,98,0,0,1,97.88,97.88Zm0,0"/><path class="cls-1" d="M261.37,126.69c-74.28,0-134.71,60.42-134.71,134.69s60.42,134.71,134.71,134.71,134.71-60.42,134.71-134.71S335.64,126.69,261.37,126.69Zm0,223a88.31,88.31,0,1,1,88.32-88.31,88.41,88.41,0,0,1-88.32,88.31Zm0,0"/><path class="cls-1" d="M401.73,87.36a34,34,0,1,0,24,9.95,34.12,34.12,0,0,0-24-9.95Zm0,0"/></g></g></svg>