<svg xmlns="http://www.w3.org/2000/svg" viewBox="0 0 1115.96 1115.99"><defs><style>.cls-1{fill:#67625f;}
    </style></defs><title>Banersy in</title><g id="Capa_2" data-name="Capa 2"><g id="Capa_1-2" data-name="Capa 1"><path class="cls-1" d="M1054.56,61.4Q993.17,0,906.74,0H209.23Q122.79,0,61.37,61.4T0,209.19V906.77q0,86.34,61.37,147.79T209.23,1116H906.74q86.39,0,147.82-61.43T1116,906.77V209.19q0-86.39-61.4-147.79ZM340,934.35H172.17V430.12H340ZM324.8,336.78q-26.22,25.08-69.09,25.08H255q-41.47,0-67.24-25.08T162,274.62q0-37.76,26.53-62.49t68.66-24.69q42.15,0,67.54,24.69t26.14,62.49c0,24.68-8.69,45.46-26.07,62.16Zm619,597.58H775.94V664.78q0-114-84.27-114c-21.35,0-39.23,5.93-53.81,17.78a112.18,112.18,0,0,0-32.67,43.23q-5.08,13.11-5.08,40.71V934.35H432.27q2.18-456.26,0-504.23H600.11v71.2q53-82.76,150.39-82.85,87.2,0,140.25,57.44t53,169.23Zm0,0"/></g></g></svg>