<svg xmlns="http://www.w3.org/2000/svg" viewBox="0 0 1307.8 1307.8"><defs><style>.cls-1{fill:#f39020;}.cls-2{fill:#efefef;}</style></defs><title>Recurso 33locali</title><g id="Capa_2" data-name="Capa 2"><g id="Capa_1-2" data-name="Capa 1"><path class="cls-1" d="M771.34,765.39A9.35,9.35,0,1,0,769.14,784c98.22,11.55,150.55,42.7,150.55,60.77,0,25.37-99.5,60.72-261.59,60.72s-261.59-35.35-261.59-60.72c0-18.07,52.33-49.22,150.55-60.77a9.35,9.35,0,1,0-2.19-18.56C446.52,777,377.82,809.6,377.82,844.72c0,39.46,96.26,79.42,280.29,79.42s280.29-40,280.29-79.42c0-35.13-68.71-67.75-167.06-79.33Zm0,0"/><path class="cls-2" d="M656.46,875.15l143.33-207c53.74-71.66,46-189.45-16.65-252a179.13,179.13,0,0,0-253.37,0c-62.64,62.64-70.44,180.43-16.88,251.81Zm1.64-399.45a65.4,65.4,0,1,1-65.42,65.38,65.47,65.47,0,0,1,65.42-65.38Zm0,0"/><path class="cls-2" d="M653.9,1307.8C293.34,1307.8,0,1014.46,0,653.91S293.34,0,653.9,0s653.9,293.34,653.9,653.91S1014.46,1307.8,653.9,1307.8Zm0-1298.21c-355.28,0-644.32,289-644.32,644.33s289,644.31,644.32,644.31,644.32-289,644.32-644.31S1009.18,9.58,653.9,9.58Z"/></g></g></svg>