<svg xmlns="http://www.w3.org/2000/svg" viewBox="0 0 762.14 910.86"><defs><style>.cls-1{fill:#fff;}</style></defs><title>Recurso 9Contacto</title><g id="Capa_2" data-name="Capa 2"><g id="Capa_1-2" data-name="Capa 1"><path class="cls-1" d="M374.86,512.64c141.57,0,256.35-114.76,256.35-256.33S516.42,0,374.86,0,118.54,114.74,118.54,256.31,233.28,512.64,374.86,512.64Z"/><path class="cls-1" d="M504.67,732.64a158.44,158.44,0,0,1,158.42-158.4c2.28,0,4.55.08,6.79.16a1136.15,1136.15,0,0,0-78.3-129.87s-99,107.88-237.64,99-198-99-198-99-217.85,198-138.64,356.42,514.82,99,514.82,99,33.42-2.48,73.66-19.63A158.42,158.42,0,0,1,504.67,732.64Z"/><path class="cls-1" d="M742.35,712.85H682.92v-59.4a19.81,19.81,0,0,0-39.63,0v59.4H583.92a19.8,19.8,0,1,0,0,39.61H643.3v59.4a19.81,19.81,0,0,0,39.63,0v-59.4h59.42a19.8,19.8,0,0,0,0-39.61Z"/></g></g></svg>