<svg xmlns="http://www.w3.org/2000/svg" viewBox="0 0 1207.48 1207.48"><defs><style>.cls-1{fill:#1b1b1b;}.cls-2{fill:#2d3034;}.cls-3{fill:#f39020;}</style></defs><title>Recurso 32Expectations</title><g id="Capa_2" data-name="Capa 2"><g id="Capa_1-2" data-name="Capa 1"><path class="cls-1" d="M603.74,1207.48C270.84,1207.48,0,936.65,0,603.75S270.84,0,603.74,0s603.74,270.84,603.74,603.75-270.84,603.74-603.74,603.74Zm0-1202.85C273.39,4.64,4.64,273.39,4.64,603.75s268.76,599.1,599.11,599.1,599.11-268.75,599.11-599.1S934.09,4.64,603.74,4.64Z"/><path class="cls-2" d="M605.08,415c-99.07,0-179.71,80.64-179.71,179.7S506,774.37,605.08,774.37,784.7,693.81,784.7,594.74,704.13,415,605.08,415Zm0,333.64c-85,0-154-69-154-153.94s69.05-154,154-154,153.94,69,153.94,154S690,748.68,605.08,748.68Zm0,0"/><path class="cls-2" d="M875.75,527.66H853.21a256.35,256.35,0,0,0-25.27-61l15.93-15.93a31.15,31.15,0,0,0,0-43.92L793,355.87c-11.73-11.73-32.2-11.73-43.93,0L733.09,371.8a254.87,254.87,0,0,0-61-25.21V324A31.07,31.07,0,0,0,641,292.95H569A31.07,31.07,0,0,0,538,324v22.59a255,255,0,0,0-61,25.21L461,355.87c-11.73-11.73-32.2-11.73-43.94,0L366.2,406.8a31.13,31.13,0,0,0,0,43.92l15.94,15.93a253.4,253.4,0,0,0-25.22,61H334.34a31.07,31.07,0,0,0-31.06,31.05v72a31.07,31.07,0,0,0,31.06,31.06h22.59a254.55,254.55,0,0,0,25.22,61L366.2,738.7a31.21,31.21,0,0,0,0,44l50.91,50.87c11.73,11.72,32.2,11.72,43.94,0L477,817.61a258,258,0,0,0,61,25.27v22.55a31.06,31.06,0,0,0,31,31h72a31.07,31.07,0,0,0,31.05-31V842.88a257.23,257.23,0,0,0,61-25.27L749,833.56c11.73,11.72,32.2,11.72,44,0l50.86-50.87a31.09,31.09,0,0,0,0-44l-15.93-15.92a257.53,257.53,0,0,0,25.27-61h22.54a31.07,31.07,0,0,0,31-31.06v-72a31.07,31.07,0,0,0-31-31.05Zm8.73,103a8.75,8.75,0,0,1-8.73,8.73H835.58l-2,8.62a232.43,232.43,0,0,1-29.2,70.56l-4.69,7.53L828,754.52a8.66,8.66,0,0,1,0,12.34l-50.86,50.87a8.72,8.72,0,0,1-12.33,0l-28.38-28.39L728.95,794a232.38,232.38,0,0,1-70.56,29.2l-8.62,2v40.17a8.76,8.76,0,0,1-8.73,8.73H569a8.77,8.77,0,0,1-8.73-8.73V825.26l-8.61-2A231.63,231.63,0,0,1,481.18,794l-7.53-4.69-28.37,28.39a8.79,8.79,0,0,1-12.39,0L382,766.86a8.76,8.76,0,0,1,0-12.34l28.37-28.38-4.69-7.53A232,232,0,0,1,376.52,648l-2-8.62H334.34a8.7,8.7,0,0,1-8.68-8.73v-72a8.71,8.71,0,0,1,8.68-8.73H374.5l2-8.62a232.47,232.47,0,0,1,29.2-70.5l4.69-7.53L382,434.94a8.81,8.81,0,0,1,0-12.38l50.85-50.87a8.78,8.78,0,0,1,12.39,0l28.37,28.38,7.53-4.69a232,232,0,0,1,70.51-29.2l8.61-2V324a8.72,8.72,0,0,1,8.73-8.68h72a8.71,8.71,0,0,1,8.73,8.68v40.16l8.62,2a234.11,234.11,0,0,1,70.56,29.2l7.53,4.69,28.38-28.38a8.71,8.71,0,0,1,12.33,0L828,422.57a8.71,8.71,0,0,1,0,12.38l-28.38,28.39,4.69,7.53a231.35,231.35,0,0,1,29.2,70.5l2,8.62h40.17a8.76,8.76,0,0,1,8.73,8.73Zm0,0"/><path class="cls-3" d="M601,651.76a13.78,13.78,0,0,1-19.49,0L523,593.29a13.78,13.78,0,0,1,0-19.49h0a13.77,13.77,0,0,1,19.49,0L601,632.27a13.78,13.78,0,0,1,0,19.49Z"/><path class="cls-3" d="M583.24,653.5a13.77,13.77,0,0,1,0-19.49l98.1-98.1a13.78,13.78,0,0,1,19.49,0h0a13.78,13.78,0,0,1,0,19.49l-98.1,98.1a13.78,13.78,0,0,1-19.49,0Z"/></g></g></svg>