<svg xmlns="http://www.w3.org/2000/svg" viewBox="0 0 1271.87 720.05"><defs><style>.cls-1{fill:#fff;}</style></defs><title>Recurso 29Iconosubjet</title><g id="Capa_2" data-name="Capa 2"><g id="Capa_1-2" data-name="Capa 1"><path class="cls-1" d="M1215,113.7H56.85A56.85,56.85,0,1,1,56.85,0H1215a56.85,56.85,0,0,1,0,113.7Z"/><path class="cls-1" d="M1215,315.8H56.85a56.85,56.85,0,1,1,0-113.7H1215a56.85,56.85,0,0,1,0,113.7Z"/><path class="cls-1" d="M1215,517.9H56.85a56.83,56.83,0,1,1,0-113.65H1215a56.83,56.83,0,1,1,0,113.65Z"/><path class="cls-1" d="M1215,720.05H56.85a56.83,56.83,0,1,1,0-113.65H1215a56.83,56.83,0,1,1,0,113.65Z"/></g></g></svg>