<svg xmlns="http://www.w3.org/2000/svg" viewBox="0 0 1111.41 1111.37"><defs><style>.cls-1{fill:#fff;}</style></defs><title>Recurso 28Icononumber</title><g id="Capa_2" data-name="Capa 2"><g id="Capa_1-2" data-name="Capa 1"><path class="cls-1" d="M555.71,69.44c268.09,0,486.23,218.18,486.23,486.23S823.8,1041.94,555.71,1041.94,69.47,823.79,69.47,555.67,287.64,69.44,555.71,69.44m0-69.44C248.83,0,0,248.81,0,555.67s248.83,555.71,555.71,555.71,555.7-248.78,555.7-555.71S862.59,0,555.71,0ZM865.53,741.47,862.4,732c-7.34-21.81-31.49-44.64-53.72-50.74L726.5,658.82c-22.23-6.06-54,2.1-70.34,18.44L626.47,707A315.46,315.46,0,0,1,404.59,485l29.71-29.73c16.28-16.26,24.41-47.95,18.38-70.34l-22.41-82.1c-6-22.25-28.95-46.43-50.78-53.76l-9.37-3.12c-21.92-7.3-53.17.07-69.45,16.44l-44.52,44.47c-7.93,7.87-13,30.45-13,30.45A524.77,524.77,0,0,0,772.71,868.18c.76,0,24-4.93,31.94-12.89l44.5-44.46c16.28-16.19,23.61-47.48,16.39-69.36Zm0,0"/></g></g></svg>