<svg xmlns="http://www.w3.org/2000/svg" viewBox="0 0 888.29 1106.21"><defs><style>.cls-1{fill:#fff;}</style></defs><title>Recurso 23IconoName</title><g id="Capa_2" data-name="Capa 2"><g id="Capa_1-2" data-name="Capa 1"><path class="cls-1" d="M748.45,640.44C621,598.86,568,547,568,547l-4.26,4.09c-37.87,35.64-79.71,56.59-117.87,56.59h-3.6c-38.15,0-80-21-117.87-56.59L320.11,547s-53,51.84-180.45,93.42C-48.55,710.79,8,996.86,7.93,999.07c5.91,31.84,9.36,42.83,12.36,44.06,189,84.11,658.54,84.11,847.52,0,3-1.22,6.43-12.21,12.34-44.06,0-2.21,57.24-287.19-131.7-358.63Zm0,0"/><path class="cls-1" d="M641.67,275.48l-1.58-1.71c-10.58-9.74-9.75-9.14-9.75-9.14s18.48-93.19,3.66-137.24C610.75,57,471.88,9.9,444,4.33c0,0-16.95-3.43-18-3.47,0,0-21.93-4.39-47.32,6.67-16.54,6.37-103,45.6-127.53,119.85-14.83,44.05,3.67,137.24,3.67,137.24s.82-.6-9.75,9.14l-1.6,1.71c-7.18,8.12-5.39,33.56,2.44,60.09,7.1,26.46,16.33,33.63,18.56,39.83C287,480.89,365,570.94,444.64,570.94s153.58-90.05,176-195.55c2.21-6.21,11.44-13.37,18.56-39.83,7.8-26.53,9.82-53.72,2.43-60.09Zm0,0"/><line class="cls-1" x1="215.46" y1="822.26" x2="632.27" y2="830.81"/></g></g></svg>