<svg xmlns="http://www.w3.org/2000/svg" viewBox="0 0 88.04 83.31"><defs><style>.cls-1{fill:#fff;}</style></defs><title>Asset 4</title><g id="Layer_2" data-name="Layer 2"><g id="Layer_1-2" data-name="Layer 1"><path class="cls-1" d="M48.78,27.83a31.89,31.89,0,0,0-3.4,1.27c-1,.45-1.77.91-2.49,1.27A35,35,0,0,0,29.94,44.49a24.72,24.72,0,0,0-1.38,3.59,20.82,20.82,0,0,0-.74,5.46,33.55,33.55,0,0,0,2.12,11.79A29.4,29.4,0,0,0,38.55,77a29.2,29.2,0,0,0,14.06,6.17,72.33,72.33,0,0,1-12.73-.3c-4.47-.5-8.61-1-13.44-2.86A41.37,41.37,0,0,1,9,66.52a43.24,43.24,0,0,1-6.7-12.36A41.1,41.1,0,0,1,0,41.53,39.38,39.38,0,0,1,2.76,26.87a43.56,43.56,0,0,1,6-10.38A40.67,40.67,0,0,1,20.28,6,41.63,41.63,0,0,1,35.61.66,54.17,54.17,0,0,1,47.77.12,47.1,47.1,0,0,1,61.92,2.94a35.57,35.57,0,0,1,8.35,4.22A41.42,41.42,0,0,1,77.67,14a40.12,40.12,0,0,1,4.47,5.61,36.6,36.6,0,0,1,4.13,8.92A41.24,41.24,0,0,1,88,40c.28,6.95-.54,12.9-.87,12.89-.17,0-.06-1.53-.68-4A23.5,23.5,0,0,0,85,44.79,28.44,28.44,0,0,0,81.13,38a26.71,26.71,0,0,0-6.06-5.56,32.08,32.08,0,0,0-8.62-4.14h0a28.31,28.31,0,0,0-7.71-1.62A31.88,31.88,0,0,0,48.78,27.83Z"/><path class="cls-1" d="M34.44,51.59a22.3,22.3,0,0,0,4.44,10.7A20,20,0,0,0,50.78,70a19.24,19.24,0,0,0,17.54-5.9A18,18,0,0,0,73,54.79c1.28-7.94-3.64-14.06-4.52-15.15L67.94,39a23,23,0,0,0-11.83-7.17l0,0A5,5,0,0,1,58.56,31c6.53-.34,13.07,3.86,13.07,3.86a27.56,27.56,0,0,1,7.25,6.69,25.06,25.06,0,0,1,3.94,7.94,24.78,24.78,0,0,1,.63,9.29,25.51,25.51,0,0,1-3.67,10.5A23.8,23.8,0,0,1,68.3,79a24.74,24.74,0,0,1-12.19,1.18,30.79,30.79,0,0,1-9.92-2.83,29.45,29.45,0,0,1-5.75-4.08,30.92,30.92,0,0,1-3.33-3.58,22.1,22.1,0,0,1-2.91-4.38,14.83,14.83,0,0,1-1.32-10.12A12.69,12.69,0,0,1,34.44,51.59Z"/><path class="cls-1" d="M64.36,59.91c-.38-.3-1.25.13-1.75.38s-.77.53-1.15.5a1.52,1.52,0,0,1-1-.62,4.5,4.5,0,0,1-1.12-2.5,1.36,1.36,0,0,1,.56-1.31,9.2,9.2,0,0,0,1.69-1.62c.31-.37,1.12-1.19,1.19-1.75s-.5-.81-1.06-.75-1,.73-1.37,1.37a4.13,4.13,0,0,1-.54.83c-.29.32-.56.61-.9.6s-.71-.4-1.37-1.19a1.71,1.71,0,0,0-.4-.4,1.5,1.5,0,0,0-1.23-.16c-.87.33-.67,1.8-1.62,4.19a5,5,0,0,1-.41.8,3.66,3.66,0,0,1-1.25,1.34,2.93,2.93,0,0,1-1.87.29A4.35,4.35,0,0,1,48,58a5.57,5.57,0,0,1-1-2.83l.13-.42a19.2,19.2,0,0,0,2-.27,7.08,7.08,0,0,0,2.18-.6A4.89,4.89,0,0,0,53,52.22a7.09,7.09,0,0,0,1-2.48,9.28,9.28,0,0,0,.28-2.89,7.18,7.18,0,0,0-.59-2.52,4.23,4.23,0,0,0-1.59-2.1,3.8,3.8,0,0,0-2-.51,5.34,5.34,0,0,0-2.42.57,7.15,7.15,0,0,0-1.58,1,8.07,8.07,0,0,0-1.67,1.91,11.55,11.55,0,0,0-1.25,2.41,13.34,13.34,0,0,0-.69,2.75A14.28,14.28,0,0,0,42.24,53a10.45,10.45,0,0,0,.61,3.66,8.34,8.34,0,0,0,1.88,3.13,7.74,7.74,0,0,0,2.22,1.59,6.18,6.18,0,0,0,3.13.71,8.3,8.3,0,0,0,2.75-.84,5.05,5.05,0,0,0,1.71-1.75,5.73,5.73,0,0,0,.94-2.4,6,6,0,0,1,.58-2,.46.46,0,0,1,.27-.24c.31-.06.7.41.87.78a3.12,3.12,0,0,1-.37,2.56,7.69,7.69,0,0,1-.94,1.35c-1,1.24-1.45,1.5-1.35,1.9a1.14,1.14,0,0,0,1.25.62c.39-.08.54-.38,1.25-1.29s1.15-1.47,1.42-1.42c.43.08.33,1,1.23,1.79a3.22,3.22,0,0,0,.54.35,8.56,8.56,0,0,0,1.61.53,3.73,3.73,0,0,0,2.54-.75A1.07,1.07,0,0,0,64.36,59.91Zm-18-6.37A15,15,0,0,1,46.16,49a10.7,10.7,0,0,1,.72-2.84,5,5,0,0,1,1.34-2.06,2.85,2.85,0,0,1,1.41-.72c.22,0,1.34,0,1.34,0a3.19,3.19,0,0,1,1.47,1.19A4.2,4.2,0,0,1,53,46.16a6.33,6.33,0,0,1-.28,3.75,3.85,3.85,0,0,1-1.09,1.63,7.21,7.21,0,0,1-1.53,1.16,6.85,6.85,0,0,1-1.78.69A6.75,6.75,0,0,1,46.32,53.54Z"/><path class="cls-1" d="M50.6,37.41a1.74,1.74,0,1,0,1.83,1.73A1.78,1.78,0,0,0,50.6,37.41Zm0,2.58a.84.84,0,1,1,.84-.84A.84.84,0,0,1,50.6,40Z"/></g></g></svg>